# xmcd
#
# Track frame offsets: 
#        150
#        2199
#        14659
#        25885
#        36958
#        46911
#        52497
#        67125
#        74059
#        84531
#        90537
#        99185
#        101457
#        117860
#        143287
#        147402
#        149531
#        155441
#        166352
#        182813
#        194813
#        206588
#        219260
#        227688
#        243594
#        254203
#        268510
#        272870
#        282303
#
# Disc length: 3795 seconds
#
# Revision: 3
# Processed by: cddbd v1.5.2PL0 Copyright (c) Steve Scherf et al.
# Submitted via: ExactAudioCopy v0.95b4
#
DISCID=c20ed11d
DTITLE=Magyar katonák - Magyar katonadalok és énekek a XX. századból, 
DTITLE=Vol.1
DYEAR=2000
DGENRE=Folk
TTITLE0=Díszjel
TTITLE1=Sohase vétettem Szeben városának
TTITLE2=Elõüzent Ferenc Jóska
TTITLE3=Mikor megyek Galícia felé
TTITLE4=Sej, kicsi vagyok, mégis katona vagyok
TTITLE5=Regutanóta
TTITLE6=Kis Kató
TTITLE7=Esik az esõ, ázik a heveder
TTITLE8=Köszönöm édesanyámnak
TTITLE9=Sej, haj, katona se lettem volna soha
TTITLE10=Vágják az erdei utat
TTITLE11=Prinz Eugen Induló
TTITLE12=Nem látlak én téged többé
TTITLE13=Tintaceruzával írott tábori levél
TTITLE14=Piszkáld ki
TTITLE15=Figurázó
TTITLE16=1914-ben
TTITLE17=Házunk elõtt kettõt fordult a kocsi
TTITLE18=Ellõtték a jobb karomat
TTITLE19=Somogy megye kellõs közepében
TTITLE20=Nagy arany, nagy ezüst
TTITLE21=Szárnya, szárnya, kaszárnya belseje
TTITLE22=Ejtõernyõs induló
TTITLE23=Cigányzenét röpít a szellõ
TTITLE24=A virágos csákóm
TTITLE25=Kimegyek a doberdói harctérre
TTITLE26=Fiumébõl sebesülve jönnek a katonák
TTITLE27=Csuhaj, ha felülök a fekete gõzösre - A gõzösnek hat kereke
TTITLE28=Lefúvás
EXTD=
EXTT0=
EXTT1=
EXTT2=
EXTT3=
EXTT4=
EXTT5=
EXTT6=
EXTT7=
EXTT8=
EXTT9=
EXTT10=
EXTT11=
EXTT12=
EXTT13=
EXTT14=
EXTT15=
EXTT16=
EXTT17=
EXTT18=
EXTT19=
EXTT20=
EXTT21=
EXTT22=
EXTT23=
EXTT24=
EXTT25=
EXTT26=
EXTT27=
EXTT28=
PLAYORDER=
